<?xml version="1.0" standalone="no"?>
<!DOCTYPE svg PUBLIC "-//W3C//DTD SVG 20010904//EN"
 "http://www.w3.org/TR/2001/REC-SVG-20010904/DTD/svg10.dtd">
<svg version="1.0" xmlns="http://www.w3.org/2000/svg"
 width="760.000000pt" height="760.000000pt" viewBox="0 0 760.000000 760.000000"
 preserveAspectRatio="xMidYMid meet">
<metadata>
Created by potrace 1.14, written by Peter Selinger 2001-2017
</metadata>
<g transform="translate(0.000000,760.000000) scale(0.100000,-0.100000)"
fill="#000000" stroke="none">
<path d="M443 6582 c-42 -3 -64 -25 -43 -46 5 -5 10 -18 10 -28 0 -10 4 -18 8
-18 5 0 9 -7 10 -15 1 -8 3 -22 4 -30 1 -8 6 -15 11 -15 5 0 7 -7 4 -15 -4 -8
-2 -17 2 -19 4 -3 18 -34 30 -68 12 -35 25 -70 28 -78 4 -8 7 -18 8 -22 2 -5
4 -10 5 -13 1 -3 3 -9 4 -14 0 -5 4 -13 9 -17 4 -4 7 -16 7 -26 0 -10 5 -18
11 -18 5 0 8 -4 4 -10 -3 -5 -1 -17 4 -27 5 -10 19 -45 31 -78 12 -33 26 -69
30 -80 15 -36 34 -100 32 -107 -1 -5 2 -8 8 -8 5 0 10 -7 10 -15 0 -8 7 -30
17 -49 l16 -35 439 0 c242 -1 450 2 462 5 21 5 33 34 14 34 -4 0 -8 9 -8 19 0
11 -5 23 -10 26 -6 4 -8 10 -5 15 3 5 0 12 -6 15 -5 4 -8 13 -5 21 3 8 0 14
-6 14 -6 0 -9 3 -6 6 4 3 -2 24 -12 47 -10 23 -16 45 -14 49 3 4 1 8 -3 8 -5
0 -15 21 -22 48 -8 26 -17 52 -21 57 -9 12 -24 67 -22 78 1 4 -3 7 -9 7 -6 0
-9 7 -5 15 3 8 1 15 -5 15 -6 0 -7 5 -4 10 3 6 1 10 -6 10 -7 0 -10 3 -7 6 3
3 -8 40 -24 82 -17 42 -32 84 -33 92 -1 8 -10 32 -19 52 -9 21 -16 44 -16 53
0 8 -4 15 -10 15 -5 0 -10 9 -10 20 0 12 -9 22 -24 26 -36 9 -435 10 -430 2 3
-4 -1 -5 -9 -2 -26 10 -156 10 -150 0 4 -5 1 -6 -6 -2 -15 9 -169 12 -177 3
-3 -3 -16 -3 -28 1 -11 4 -40 6 -63 4z"/>
<path d="M3811 6580 c-32 -5 -36 -9 -54 -65 -11 -33 -25 -63 -31 -67 -6 -4 -8
-8 -3 -8 4 0 0 -17 -9 -37 -9 -21 -17 -42 -18 -48 -5 -20 -26 -70 -37 -89 -6
-10 -6 -15 -1 -12 5 3 1 -11 -9 -31 -11 -21 -19 -42 -19 -49 0 -6 -8 -26 -17
-45 -10 -19 -18 -41 -20 -49 -1 -9 -10 -34 -19 -55 -10 -22 -17 -46 -15 -52 1
-7 -3 -13 -9 -13 -5 0 -10 -6 -10 -14 0 -8 -5 -27 -12 -43 -6 -15 -12 -30 -13
-33 -1 -3 -5 -13 -9 -22 -4 -9 -9 -22 -10 -30 -2 -7 -8 -24 -13 -38 -6 -14 -9
-28 -6 -32 2 -5 0 -8 -6 -8 -6 0 -13 -16 -17 -35 -3 -19 -10 -38 -15 -41 -5
-3 -7 -10 -4 -15 4 -5 1 -9 -4 -9 -6 0 -10 -3 -9 -7 3 -11 -23 -86 -34 -100
-5 -7 -7 -17 -3 -23 3 -5 1 -10 -5 -10 -7 0 -10 -6 -7 -14 3 -8 1 -16 -4 -18
-6 -2 -11 -10 -13 -18 -6 -34 -30 -100 -35 -100 -4 0 -7 -8 -8 -17 -1 -10 -7
-31 -14 -48 -7 -16 -13 -34 -15 -40 -2 -10 -69 -187 -81 -215 -3 -8 -7 -18 -8
-22 -2 -5 -4 -10 -5 -13 -1 -3 -3 -8 -4 -12 -1 -5 -4 -12 -7 -18 -3 -5 -12
-32 -20 -59 -8 -27 -20 -51 -26 -53 -7 -3 -11 -9 -8 -13 3 -5 -5 -35 -17 -67
-12 -32 -23 -60 -23 -63 -1 -3 -5 -14 -10 -25 -40 -99 -80 -217 -77 -227 1 -5
-2 -8 -8 -8 -5 0 -10 -4 -10 -9 0 -5 -5 -22 -12 -38 -6 -15 -10 -32 -9 -37 1
-5 -6 -18 -16 -29 -10 -11 -12 -17 -5 -13 7 4 4 -7 -7 -25 -11 -18 -17 -37
-14 -42 3 -5 2 -12 -3 -16 -5 -3 -17 -31 -28 -61 -10 -30 -23 -66 -29 -80 -6
-14 -10 -28 -9 -32 1 -5 -2 -8 -7 -8 -6 0 -8 -9 -6 -20 2 -11 0 -20 -4 -20 -5
0 -12 -11 -15 -25 -3 -13 -11 -37 -18 -52 -6 -15 -13 -37 -15 -48 -2 -10 -8
-22 -14 -26 -6 -3 -10 -9 -10 -13 2 -16 -12 -66 -19 -66 -3 0 -7 -6 -8 -12 -2
-25 -8 -43 -24 -76 -10 -19 -12 -30 -5 -25 7 3 4 -3 -5 -14 -10 -11 -18 -28
-18 -39 0 -11 -7 -29 -15 -40 -8 -12 -11 -24 -8 -28 3 -3 1 -6 -5 -6 -7 0 -11
-3 -10 -7 3 -12 -33 -112 -42 -118 -5 -3 -7 -14 -5 -25 2 -11 0 -20 -6 -20 -5
0 -8 -3 -7 -7 1 -5 -4 -21 -10 -36 -7 -16 -12 -33 -12 -38 0 -5 -10 -9 -22 -9
-12 0 -18 3 -15 7 4 3 0 17 -9 31 -11 17 -12 22 -3 16 11 -6 12 -5 2 7 -6 8
-19 37 -29 64 -9 28 -21 61 -27 75 -6 14 -11 27 -11 30 -1 5 -31 88 -43 120
-4 8 -7 17 -8 20 -1 3 -7 18 -14 34 -6 16 -13 36 -15 45 -2 9 -9 30 -16 46 -7
17 -13 33 -12 38 1 4 -3 7 -9 7 -5 0 -7 5 -4 10 4 6 2 16 -3 23 -5 7 -15 30
-22 52 -7 22 -20 56 -28 75 -9 19 -15 41 -13 48 1 6 -3 12 -9 12 -5 0 -9 3 -8
8 0 4 -1 14 -5 22 -23 60 -39 110 -36 112 1 2 -4 14 -11 28 -8 14 -15 34 -17
45 -2 11 -8 24 -13 29 -6 6 -10 18 -10 28 0 10 -4 18 -9 18 -5 0 -8 8 -7 17 2
10 -5 33 -15 51 -11 18 -18 36 -17 40 1 4 -3 17 -10 30 -7 12 -10 22 -6 22 3
0 1 6 -5 14 -7 8 -14 22 -16 32 -8 37 -60 179 -67 185 -5 3 -9 17 -10 32 -1
15 -6 27 -10 27 -4 0 -8 8 -8 18 -1 35 -35 86 -62 93 -16 4 -28 4 -28 -1 0 -4
-16 -4 -35 0 -21 5 -38 4 -41 -2 -4 -5 -11 -5 -18 1 -9 7 -16 7 -24 -1 -7 -7
-12 -8 -12 -2 0 11 -40 11 -58 0 -7 -4 -12 -2 -12 4 0 7 -6 8 -19 1 -10 -6
-21 -8 -23 -5 -8 8 -78 11 -78 3 0 -4 -16 -3 -35 1 -21 5 -38 4 -41 -2 -4 -5
-11 -5 -18 1 -9 7 -16 7 -24 -1 -7 -7 -12 -8 -12 -2 0 11 -40 11 -58 0 -7 -4
-12 -2 -12 4 0 7 -6 8 -19 1 -10 -6 -21 -8 -23 -5 -8 8 -78 11 -78 3 0 -4 -15
-3 -34 1 -20 4 -39 3 -44 -2 -6 -6 -12 -6 -17 2 -5 8 -10 8 -21 -1 -8 -6 -14
-7 -14 -2 0 7 -43 9 -60 3 -3 -1 -12 -3 -20 -4 -16 -1 -24 -46 -9 -46 5 0 9
-7 9 -15 0 -9 8 -28 17 -42 11 -17 13 -24 5 -19 -11 6 -11 4 -3 -10 11 -20 79
-198 86 -224 2 -8 12 -36 24 -62 11 -27 18 -48 16 -48 -2 0 2 -12 10 -27 8
-15 12 -30 9 -35 -3 -4 -1 -8 4 -8 6 0 13 -7 16 -16 3 -9 2 -12 -5 -8 -13 7
12 -38 26 -48 6 -4 7 -8 2 -8 -4 0 -1 -16 7 -35 9 -20 16 -39 17 -43 2 -11 10
-35 17 -52 3 -8 6 -17 6 -20 1 -3 4 -9 7 -15 4 -5 14 -35 24 -65 10 -30 22
-60 27 -67 5 -7 7 -17 3 -23 -3 -5 -1 -10 6 -10 7 0 9 -3 6 -7 -4 -3 -2 -12 3
-19 6 -6 12 -20 15 -30 3 -17 44 -131 62 -174 3 -8 7 -17 7 -20 1 -3 6 -18 13
-35 12 -33 19 -54 23 -70 1 -5 6 -16 12 -22 6 -7 8 -13 5 -13 -3 0 0 -12 8
-27 8 -15 12 -30 9 -35 -3 -4 0 -8 5 -8 6 0 10 -3 9 -7 0 -5 1 -15 4 -23 4 -8
9 -24 14 -35 4 -11 6 -23 6 -27 -1 -5 2 -8 6 -8 4 0 9 -10 9 -22 1 -13 7 -24
13 -26 5 -2 7 -8 4 -13 -3 -6 0 -17 8 -26 7 -9 12 -17 10 -17 -2 -1 1 -14 7
-29 6 -16 11 -34 11 -40 0 -7 6 -21 13 -32 7 -11 19 -40 26 -65 7 -25 17 -50
23 -57 5 -7 7 -17 3 -23 -3 -5 -1 -10 6 -10 7 0 9 -3 6 -7 -4 -3 -3 -11 2 -17
4 -6 19 -42 31 -81 13 -38 28 -75 33 -82 5 -7 6 -16 3 -21 -3 -6 1 -15 9 -22
8 -7 12 -16 9 -21 -3 -5 0 -9 6 -9 6 0 8 -4 5 -10 -3 -5 3 -30 15 -54 11 -25
20 -50 20 -56 0 -5 4 -18 9 -28 10 -17 68 -172 76 -202 12 -42 41 -116 48
-121 5 -3 8 -9 8 -13 -2 -19 13 -66 21 -66 5 0 6 -4 3 -10 -3 -5 1 -20 10 -33
8 -13 12 -27 9 -30 -4 -4 -2 -12 3 -19 5 -7 24 -53 43 -103 38 -104 33 -96 57
-100 10 -2 18 -4 18 -5 0 -1 10 -3 23 -4 12 -2 22 1 22 6 0 5 9 4 20 -2 11 -6
20 -7 20 -2 0 10 36 9 46 -1 4 -3 14 -3 23 1 9 4 28 6 44 5 15 -2 39 -4 55 -6
15 -1 32 1 39 6 6 4 14 3 18 -3 3 -6 12 -7 18 -3 18 11 37 12 37 2 0 -6 8 -5
20 1 11 6 20 7 20 3 0 -4 11 -8 25 -8 14 0 25 4 25 8 0 5 5 5 12 1 17 -11 58
-11 58 -1 0 4 9 3 20 -3 11 -6 20 -7 20 -2 0 10 36 9 46 -1 4 -4 13 -2 21 4
10 9 13 8 13 0 0 -7 5 -9 11 -6 16 11 69 12 69 3 0 -5 9 -4 20 2 18 9 36 39
45 73 2 4 4 9 5 12 1 3 3 8 5 13 1 4 8 21 15 37 7 17 12 36 11 43 -1 6 3 12
10 12 6 0 9 7 5 15 -3 8 -2 15 2 15 6 0 25 45 35 85 2 6 9 20 15 33 7 12 10
22 7 22 -3 0 0 10 7 23 6 12 13 31 15 42 2 10 9 23 16 27 6 4 8 8 3 8 -5 0 -3
7 4 15 7 8 9 15 5 15 -4 0 -2 7 5 15 7 8 10 15 6 15 -4 0 1 11 10 25 9 14 13
25 9 25 -4 0 -2 6 4 13 6 8 8 17 4 20 -3 4 -1 7 6 7 6 0 11 6 9 13 -1 6 6 27
15 45 10 17 14 32 10 32 -4 0 -2 5 5 12 7 7 12 18 12 24 0 7 5 25 12 41 6 15
11 31 10 36 -1 4 3 7 8 7 5 0 9 3 9 8 -1 4 0 10 1 15 1 4 3 10 5 15 1 4 7 20
13 35 7 16 12 35 12 43 0 8 4 14 9 14 8 0 25 55 23 72 -1 3 5 11 13 18 7 6 11
18 8 26 -3 8 -1 14 4 14 5 0 9 8 10 18 1 9 13 43 27 75 14 31 23 57 21 57 -3
0 0 10 7 23 7 12 13 25 14 30 1 4 3 10 4 15 1 4 2 10 1 15 0 4 4 7 11 7 6 0 8
3 5 6 -3 4 -1 16 6 28 6 11 12 26 13 31 1 10 10 35 45 114 11 27 22 55 23 62
1 8 10 31 19 53 9 21 17 47 17 56 0 10 3 20 8 22 4 2 17 30 28 63 46 128 59
160 67 166 5 3 8 9 8 13 -2 19 13 66 21 66 5 0 7 4 4 8 -3 5 1 20 9 35 7 14
16 39 20 56 4 17 10 31 14 31 4 0 8 6 8 13 1 19 7 42 15 47 3 3 8 14 10 25 1
11 6 23 10 26 5 3 9 17 10 32 1 15 6 27 10 27 4 0 8 9 8 20 0 11 5 20 10 20 6
0 9 3 8 8 -2 8 9 48 22 77 14 30 51 133 51 142 1 5 5 14 11 21 6 6 7 12 2 12
-5 0 -3 4 3 8 7 4 14 19 15 32 2 14 5 27 8 30 6 5 89 216 93 235 2 6 5 15 8
20 4 6 12 28 19 50 7 22 17 45 22 52 5 7 7 17 3 23 -3 5 -1 10 5 10 7 0 10 7
6 15 -3 8 -2 15 3 15 8 0 18 27 27 67 1 6 9 22 17 34 9 12 13 28 10 35 -3 8 0
14 6 14 6 0 11 6 11 14 0 8 5 27 12 43 6 15 12 30 13 33 9 27 19 50 32 74 13
23 13 27 2 21 -8 -5 -5 1 5 13 11 12 16 22 11 22 -4 0 -3 6 3 13 6 6 10 14 10
17 1 3 5 18 11 33 6 16 11 35 11 43 0 8 5 14 11 14 5 0 7 5 4 10 -3 6 -2 10 4
10 5 0 8 8 6 18 -1 9 6 31 16 48 10 17 16 34 12 37 -3 4 -1 7 5 7 7 0 11 3 11
8 -3 14 14 73 22 78 5 3 9 14 9 25 0 10 4 19 10 19 5 0 9 3 8 8 -1 4 4 23 11
42 16 41 22 60 23 78 1 6 5 12 10 12 4 0 8 9 8 20 0 11 5 20 11 20 5 0 8 4 4
10 -3 5 -1 17 4 27 14 26 24 57 23 66 -1 4 3 7 9 7 5 0 8 4 5 8 -3 5 1 20 9
35 8 15 12 27 9 27 -2 0 3 11 12 25 9 14 13 25 9 25 -4 0 -2 7 5 15 6 8 9 19
5 25 -3 5 -2 10 2 10 6 0 37 69 48 110 1 3 5 14 10 25 39 96 53 135 48 135 -3
0 -1 6 5 13 6 7 14 27 17 45 5 32 5 32 -37 33 -253 3 -781 3 -807 -1z"/>
<path d="M5170 6530 c-8 -5 -11 -10 -7 -10 4 0 2 -10 -5 -22 -7 -13 -13 -27
-13 -33 -1 -5 -6 -21 -12 -35 -33 -78 -41 -100 -36 -100 3 0 0 -8 -8 -17 -8
-10 -16 -31 -18 -47 -1 -16 -9 -36 -17 -43 -8 -8 -14 -25 -14 -38 0 -13 -5
-27 -10 -30 -6 -4 -8 -10 -5 -15 3 -4 -3 -11 -12 -14 -15 -6 -15 -8 -3 -16 8
-6 10 -10 4 -10 -7 0 -15 -12 -19 -27 -3 -15 -13 -43 -22 -62 -9 -20 -18 -45
-20 -56 -2 -10 -8 -22 -14 -25 -5 -4 -9 -11 -8 -16 2 -10 -15 -59 -31 -86 -6
-10 -10 -23 -10 -28 0 -6 -8 -28 -18 -49 -10 -21 -18 -45 -16 -54 1 -10 -2
-17 -6 -17 -5 0 -12 -16 -16 -35 -3 -19 -10 -35 -16 -35 -5 0 -7 -4 -4 -9 3
-4 -1 -16 -8 -27 -8 -10 -12 -24 -9 -31 3 -7 -1 -13 -8 -13 -7 0 -10 -3 -7 -6
3 -3 -4 -32 -17 -65 -13 -32 -20 -59 -17 -59 4 0 1 -4 -5 -8 -26 -17 -15 -120
18 -177 4 -5 10 -23 14 -40 11 -40 12 -44 15 -52 1 -5 2 -11 1 -15 0 -5 4 -8
9 -8 5 0 9 -3 8 -7 0 -5 2 -16 5 -25 4 -10 10 -26 14 -35 3 -10 5 -21 5 -25
-1 -5 3 -8 8 -8 5 0 9 -3 9 -7 -1 -5 0 -11 1 -15 1 -5 4 -12 5 -18 1 -5 3 -11
4 -12 2 -2 5 -14 7 -28 2 -13 9 -27 15 -31 6 -3 10 -9 9 -13 -4 -14 25 -96 34
-96 5 0 7 -3 3 -6 -6 -7 15 -72 39 -116 8 -14 14 -35 14 -45 0 -10 7 -29 16
-41 8 -12 12 -22 8 -22 -3 0 -1 -6 5 -14 6 -8 11 -18 9 -22 -1 -5 3 -19 10
-30 6 -12 8 -24 5 -28 -3 -3 -2 -6 3 -6 6 0 16 -22 23 -50 7 -27 18 -50 24
-50 5 0 8 -3 4 -6 -5 -5 13 -63 46 -144 6 -14 12 -33 14 -43 1 -10 10 -32 19
-49 9 -17 18 -42 20 -55 3 -14 12 -36 21 -49 8 -13 13 -24 10 -24 -3 0 1 -16
9 -35 8 -19 12 -35 9 -35 -3 0 1 -10 10 -23 8 -13 12 -27 8 -30 -3 -4 -1 -7 5
-7 7 0 12 -11 12 -23 0 -13 3 -27 8 -31 4 -4 8 -12 8 -17 1 -5 3 -11 4 -14 1
-3 3 -8 5 -12 1 -5 7 -21 14 -38 7 -16 18 -47 24 -67 7 -21 18 -38 24 -38 7 0
13 -5 13 -11 0 -5 5 -7 11 -3 15 9 160 11 166 1 2 -4 9 -4 16 0 16 10 58 10
63 1 3 -5 10 -5 17 -1 13 8 97 10 97 3 0 -3 17 -4 38 -3 20 2 47 3 60 3 12 0
28 0 35 -1 6 0 38 2 70 3 31 2 57 -1 57 -5 0 -5 5 -5 12 -1 16 10 119 11 125
1 2 -4 10 -4 16 0 6 4 33 7 59 8 59 0 72 12 53 48 -7 15 -11 27 -8 27 3 0 0 6
-6 13 -6 8 -8 17 -4 21 4 4 2 10 -5 14 -6 5 -13 17 -15 27 -2 11 -7 29 -11 40
-5 11 -14 36 -21 56 -8 20 -11 39 -8 43 4 3 1 6 -5 6 -7 0 -12 9 -12 20 0 11
-4 20 -8 20 -7 0 -11 16 -14 58 -1 6 -5 12 -10 12 -4 0 -8 8 -8 18 0 10 -3 22
-7 26 -4 3 -8 12 -9 19 -1 7 -6 23 -12 37 -5 14 -11 30 -12 35 -1 6 -6 16 -12
23 -6 6 -8 12 -4 12 4 0 0 13 -8 29 -9 16 -12 31 -9 35 4 3 1 6 -6 6 -7 0 -9
5 -6 10 3 6 1 10 -6 10 -7 0 -10 2 -7 6 3 3 -3 27 -13 53 -10 27 -15 51 -12
55 4 3 2 6 -3 6 -9 0 -40 88 -36 103 1 4 -3 7 -10 7 -6 0 -8 3 -5 7 4 3 3 11
-2 17 -4 6 -16 36 -26 66 -10 30 -22 61 -28 68 -5 6 -7 12 -3 12 4 0 0 13 -9
30 -8 16 -16 33 -16 37 -1 8 -15 48 -26 73 -3 8 -7 17 -7 20 -1 3 -5 11 -9 18
-5 6 -5 17 -2 22 3 6 1 10 -4 10 -6 0 -10 3 -9 8 0 4 -2 14 -5 22 -7 17 -29
78 -59 165 -11 33 -25 64 -29 70 -5 5 -9 15 -9 21 0 7 -5 25 -12 41 -6 15 -12
30 -13 33 -7 29 -30 88 -38 98 -5 6 -6 12 -2 12 4 0 3 6 -3 13 -11 13 -12 17
-12 43 0 9 -5 12 -12 8 -8 -5 -9 0 -6 14 4 13 1 22 -5 22 -6 0 -7 3 -4 7 4 3
2 12 -4 20 -6 7 -8 13 -4 13 4 0 2 7 -5 15 -7 8 -9 15 -4 15 5 0 3 4 -4 9 -7
4 -14 18 -15 29 -1 12 -5 22 -10 22 -4 0 -6 3 -4 8 3 4 0 18 -6 32 -5 14 -12
34 -14 45 -2 11 -8 22 -13 23 -6 2 -10 12 -10 22 0 9 -8 35 -17 56 -9 22 -18
42 -19 47 -1 4 -3 10 -4 15 -2 4 -4 12 -5 17 -1 6 -8 24 -15 40 -7 17 -14 32
-15 35 -4 18 -29 87 -34 95 -3 6 -7 19 -8 30 -2 10 -8 22 -14 26 -6 3 -10 10
-9 15 0 5 -1 18 -4 29 -3 11 -5 20 -4 20 1 0 -5 11 -12 25 -8 14 -13 29 -12
34 2 4 -1 13 -6 20 -5 6 -17 36 -27 66 -10 30 -21 60 -26 66 -5 6 -10 19 -12
30 -1 10 -6 25 -10 31 -5 7 -10 21 -12 30 -2 10 -9 32 -16 48 -7 17 -13 34
-13 40 -1 14 -28 17 -46 5z"/>
<path d="M4290 4200 c-11 -11 -21 -24 -21 -30 -2 -11 -5 -25 -9 -37 -1 -5 -2
-11 -1 -15 0 -5 -3 -8 -7 -8 -5 0 -9 -6 -9 -14 0 -8 -8 -31 -17 -51 -10 -21
-20 -45 -21 -54 -2 -9 -4 -18 -5 -21 -1 -3 -2 -8 -1 -12 0 -5 -3 -8 -9 -8 -5
0 -10 -8 -10 -17 0 -10 -7 -31 -15 -47 -9 -16 -17 -37 -18 -45 -2 -9 -9 -26
-15 -38 -7 -13 -10 -23 -6 -23 3 0 -1 -11 -10 -25 -9 -14 -14 -25 -11 -25 3 0
-4 -18 -15 -40 -11 -22 -18 -40 -14 -40 4 0 1 -7 -6 -15 -7 -8 -9 -15 -5 -15
4 0 3 -6 -2 -12 -11 -14 -33 -78 -32 -92 0 -5 -4 -12 -10 -15 -6 -4 -12 -16
-14 -26 -4 -18 -10 -35 -39 -105 -13 -29 -19 -49 -20 -67 -1 -7 -5 -13 -10
-13 -4 0 -8 -9 -8 -19 0 -11 -5 -23 -10 -26 -6 -4 -8 -11 -5 -16 4 -5 2 -9 -3
-9 -5 0 -9 -6 -10 -12 -2 -28 -8 -47 -20 -60 -6 -8 -9 -17 -6 -20 3 -4 -1 -19
-10 -36 -8 -16 -12 -32 -9 -36 4 -3 2 -6 -4 -6 -20 0 -1 -130 26 -175 6 -11
12 -32 13 -52 1 -7 5 -13 10 -13 4 0 7 -3 6 -7 -1 -5 4 -21 11 -38 7 -16 13
-38 14 -47 1 -10 5 -18 9 -18 4 0 8 -8 8 -18 0 -10 4 -22 8 -27 4 -6 14 -28
21 -50 7 -22 16 -49 21 -60 18 -42 24 -61 25 -77 1 -10 7 -24 13 -31 7 -8 13
-22 15 -33 2 -10 9 -32 16 -49 6 -16 23 -61 37 -100 14 -38 31 -83 37 -100 7
-16 12 -33 12 -37 0 -3 3 -10 8 -14 4 -4 7 -16 7 -26 0 -10 5 -18 11 -18 5 0
7 -5 4 -10 -4 -6 -1 -17 5 -25 7 -8 9 -15 5 -15 -4 0 -2 -6 4 -14 11 -13 22
-46 23 -73 1 -7 5 -13 10 -13 4 0 7 -3 6 -7 -4 -19 15 -41 33 -38 10 2 21 0
24 -6 4 -5 13 -5 25 1 12 6 28 7 43 1 16 -6 28 -6 35 1 6 6 12 6 16 -1 5 -8
13 -8 26 -1 12 6 28 7 43 1 16 -6 28 -6 35 1 6 6 12 6 16 -1 5 -8 13 -8 26 -1
12 6 28 7 44 0 17 -6 27 -6 32 1 4 7 10 7 18 0 7 -6 16 -8 20 -4 3 4 111 8
239 9 283 2 258 -1 254 27 -4 21 -6 29 -30 92 -7 17 -12 32 -12 35 -1 6 -33
95 -45 125 -5 11 -21 56 -36 100 -15 44 -31 85 -35 91 -5 6 -6 14 -2 17 3 4 2
7 -3 7 -5 0 -11 10 -11 22 -1 13 -7 32 -12 43 -14 28 -62 156 -66 179 -3 10
-9 24 -15 32 -7 7 -9 18 -5 24 3 5 1 10 -5 10 -6 0 -9 4 -5 9 3 5 1 12 -5 16
-6 4 -8 10 -5 15 3 5 -1 14 -8 22 -7 7 -12 20 -12 28 1 8 -2 20 -5 25 -4 6
-15 33 -25 60 -9 28 -20 57 -23 65 -3 8 -6 17 -7 20 -1 3 -7 18 -13 33 -7 16
-12 35 -12 43 0 8 -5 14 -12 14 -6 0 -8 3 -5 7 4 3 2 12 -4 20 -6 7 -9 13 -5
13 3 0 -5 25 -19 56 -13 30 -24 58 -23 62 1 4 -5 21 -12 37 -7 17 -14 33 -15
38 -2 4 -4 10 -5 15 -2 4 -4 12 -5 17 -1 6 -7 21 -12 35 -6 14 -11 28 -12 33
0 4 -8 21 -16 37 -9 17 -13 30 -9 30 4 0 1 7 -6 15 -7 8 -9 15 -4 15 5 0 5 4
-1 8 -10 7 -67 157 -68 180 0 6 -4 12 -9 12 -5 0 -6 5 -3 10 3 6 2 10 -3 10
-5 0 -9 7 -10 15 -1 8 -3 22 -4 30 -1 8 -5 15 -10 15 -4 0 -8 11 -8 25 0 14
-5 25 -12 25 -6 0 -9 3 -6 6 4 3 0 20 -7 39 -8 18 -11 35 -8 39 4 3 1 6 -5 6
-7 0 -11 3 -10 8 1 4 -6 24 -15 45 -9 21 -16 41 -15 45 1 4 -5 21 -12 37 -7
17 -14 35 -16 40 -6 24 -66 175 -70 175 -2 0 -13 -9 -24 -20z"/>
<path d="M5755 2772 c-89 -4 -100 -12 -79 -60 9 -21 17 -43 17 -49 0 -7 3 -13
7 -13 3 0 13 -22 20 -50 7 -27 18 -50 23 -50 6 0 8 -3 4 -6 -3 -3 3 -28 13
-55 11 -27 16 -49 12 -49 -4 0 -1 -4 5 -8 7 -4 14 -17 16 -27 2 -11 9 -30 15
-42 7 -13 10 -23 6 -23 -3 0 1 -12 11 -26 9 -15 12 -23 6 -20 -6 4 -2 -8 9
-27 12 -19 20 -39 19 -43 -1 -5 4 -25 12 -44 7 -19 12 -38 11 -42 -1 -5 2 -8
8 -8 6 0 10 -6 10 -14 0 -8 5 -27 11 -43 6 -15 10 -30 10 -33 0 -3 7 -15 15
-28 8 -12 12 -27 9 -32 -3 -6 -1 -10 5 -10 6 0 9 -4 5 -10 -9 -15 37 -39 73
-36 17 1 32 -1 32 -4 0 -6 35 -5 50 0 17 7 107 4 118 -4 7 -5 12 -5 12 1 0 5
12 8 28 7 15 -1 27 -3 27 -4 0 -5 46 -6 50 -1 2 4 32 5 67 3 34 -1 68 -2 73
-2 6 0 39 0 75 0 36 0 72 0 80 0 8 0 45 0 81 1 36 1 71 -1 77 -5 7 -4 12 -3
12 2 0 5 19 7 41 5 27 -4 39 -2 35 5 -3 6 -2 14 4 17 8 5 7 14 -3 28 -14 24
-42 107 -39 120 1 4 -3 7 -10 7 -6 0 -8 3 -5 7 4 3 3 11 -2 17 -6 7 -12 24
-15 40 -3 15 -10 33 -15 40 -6 7 -12 21 -14 32 -2 10 -7 26 -10 34 -20 47
-109 287 -111 300 -2 8 -11 33 -20 55 -10 22 -19 48 -21 59 -3 10 -13 35 -23
54 l-18 36 -380 0 c-208 1 -410 0 -449 -2z"/>
</g>
</svg>
